<?xml version="1.0" standalone="no"?><!DOCTYPE svg PUBLIC "-//W3C//DTD SVG 1.1//EN" "http://www.w3.org/Graphics/SVG/1.1/DTD/svg11.dtd"><svg t="1772014913495" class="icon" viewBox="0 0 1024 1024" version="1.1" xmlns="http://www.w3.org/2000/svg" p-id="5319" xmlns:xlink="http://www.w3.org/1999/xlink" width="32" height="32"><path d="M759.19238281 116.44274902a148.31542969 148.31542969 0 0 1 148.31542969 148.3154297v252.08679198l-64.27001953-0.04943848V264.75817871A84.04541016 84.04541016 0 0 0 759.19238281 180.71276855H264.80761719A84.04541016 84.04541016 0 0 0 180.76220703 264.75817871v494.38476562A84.04541016 84.04541016 0 0 0 264.80761719 843.1883545h34.60693359V907.45837403H264.80761719a148.31542969 148.31542969 0 0 1-148.31542969-148.3154297V264.75817871a148.31542969 148.31542969 0 0 1 148.31542969-148.31542968h494.38476562z" fill="#02bd85" p-id="5320"></path><path d="M149.91259766 353.796875h727.83325195v64.27001953H149.91259766z" fill="#02bd85" p-id="5321"></path><path d="M236.47937011 236.03442383m37.07885743 0l0 0q37.07885742 0 37.07885743 37.07885742l0 0q0 37.07885742-37.07885743 37.07885742l0 0q-37.07885742 0-37.07885742-37.07885742l0 0q0-37.07885742 37.07885742-37.07885742Z" fill="#02bd85" p-id="5322"></path><path d="M359.87780761 236.03442383m37.07885743 0l0 0q37.07885742 0 37.07885743 37.07885742l0 0q0 37.07885742-37.07885743 37.07885742l0 0q-37.07885742 0-37.07885742-37.07885742l0 0q0-37.07885742 37.07885742-37.07885742Z" fill="#02bd85" p-id="5323"></path><path d="M483.22680664 236.03442383m37.07885742 0l0 0q37.07885742 0 37.07885742 37.07885742l0 0q0 37.07885742-37.07885742 37.07885742l0 0q-37.07885742 0-37.07885742-37.07885742l0 0q0-37.07885742 37.07885742-37.07885742Z" fill="#02bd85" p-id="5324"></path><path d="M393.84204102 588.43188477l4.69665527 3.55957031 35.39794921 123.94226075 35.84289552-123.94226075 4.74609375-3.55957031h40.14404296l4.69665528 6.5258789-63.13293457 185.04821778-4.69665528 3.31237793h-36.53503418l-4.64721679-3.36181641L347.81481933 595.00720215l4.69665528-6.52587891h41.28112793zM576.9621582 588.43188477l4.94384766 4.94384765v113.7084961c0 12.01354981 1.38427734 20.61584473 4.05395508 25.85632324 3.8067627 8.40454102 12.21130372 12.65625 26.1529541 12.65624999 13.84277344 0 22.19787598-4.25170898 26.10351562-12.90344237 2.57080078-4.99328614 3.95507813-13.59558106 3.95507813-25.60913086v-113.7084961l4.94384766-4.94384765h39.30358886l4.94384766 4.94384765v113.7084961c0 20.4675293-3.21350098 36.58447266-9.83825684 48.40026856-12.35961914 21.75292969-35.74401856 32.62939453-69.41162109 32.62939453-33.71704102 0-57.15087891-10.82702637-69.609375-32.62939453-6.57531739-11.86523438-9.78881836-27.93273926-9.78881836-48.40026856v-113.7084961l4.94384766-4.94384765h39.30358886zM860.14575195 588.43188477l4.94384766 4.94384765v32.72827149l-4.94384766 4.94384765h-92.94433593v29.41589356h84.88586426l4.94384765 4.94384765v32.13500976l-4.94384766 4.94384766h-84.93530274v37.67211914h97.49267579l4.94384765 4.94384766v33.27209473l-4.94384765 4.94384765h-140.20751953l-4.94384766-4.94384765V593.37573242l4.94384765-4.94384765h135.70861817z" fill="#02bd85" p-id="5325"></path></svg>
